<?xml version="1.0" encoding="UTF-8" standalone="no"?>
<!DOCTYPE svg PUBLIC "-//W3C//DTD SVG 1.1//EN"
 "http://www.w3.org/Graphics/SVG/1.1/DTD/svg11.dtd">
<!-- Generated by graphviz version 5.0.0 (20220707.1540)
 -->
<!-- Title: dependencies Pages: 1 -->
<svg width="286pt" height="174pt"
 viewBox="0.00 0.00 286.00 173.80" xmlns="http://www.w3.org/2000/svg" xmlns:xlink="http://www.w3.org/1999/xlink">
<g id="graph0" class="graph" transform="scale(1 1) rotate(0) translate(4 169.8)">
<title>dependencies</title>
<polygon fill="white" stroke="transparent" points="-4,4 -4,-169.8 282,-169.8 282,4 -4,4"/>
<text text-anchor="middle" x="139" y="-8.2" font-family="sans-serif" font-size="14.00">dependencies</text>
<g id="clust1" class="cluster">
<title>cluster_TaskModule</title>
<polygon fill="none" stroke="black" stroke-dasharray="1,5" points="8,-32.8 8,-157.8 270,-157.8 270,-32.8 8,-32.8"/>
</g>
<g id="clust6" class="cluster">
<title>cluster_TaskModule_providers</title>
<polygon fill="none" stroke="black" points="128,-40.8 128,-92.8 262,-92.8 262,-40.8 128,-40.8"/>
</g>
<g id="clust3" class="cluster">
<title>cluster_TaskModule_imports</title>
<polygon fill="none" stroke="black" points="16,-40.8 16,-92.8 120,-92.8 120,-40.8 16,-40.8"/>
</g>
<!-- AuthModule -->
<g id="node1" class="node">
<title>AuthModule</title>
<polygon fill="#8dd3c7" stroke="black" points="111.55,-84.8 108.55,-88.8 87.55,-88.8 84.55,-84.8 24.45,-84.8 24.45,-48.8 111.55,-48.8 111.55,-84.8"/>
<text text-anchor="middle" x="68" y="-62.6" font-family="Times,serif" font-size="14.00">AuthModule</text>
</g>
<!-- TaskModule -->
<g id="node2" class="node">
<title>TaskModule</title>
<polygon fill="#8dd3c7" stroke="black" points="174.27,-149.8 171.27,-153.8 150.27,-153.8 147.27,-149.8 87.73,-149.8 87.73,-113.8 174.27,-113.8 174.27,-149.8"/>
<text text-anchor="middle" x="131" y="-127.6" font-family="Times,serif" font-size="14.00">TaskModule</text>
</g>
<!-- AuthModule&#45;&gt;TaskModule -->
<g id="edge1" class="edge">
<title>AuthModule&#45;&gt;TaskModule</title>
<path fill="none" stroke="black" d="M99.7,-84.91C99.7,-84.91 99.7,-103.79 99.7,-103.79"/>
<polygon fill="black" stroke="black" points="96.2,-103.79 99.7,-113.79 103.2,-103.79 96.2,-103.79"/>
</g>
<!-- TaskService -->
<g id="node3" class="node">
<title>TaskService</title>
<ellipse fill="#fdb462" stroke="black" cx="195" cy="-66.8" rx="58.53" ry="18"/>
<text text-anchor="middle" x="195" y="-62.6" font-family="Times,serif" font-size="14.00">TaskService</text>
</g>
<!-- TaskService&#45;&gt;TaskModule -->
<g id="edge2" class="edge">
<title>TaskService&#45;&gt;TaskModule</title>
<path fill="none" stroke="black" d="M155.31,-80.27C155.31,-80.27 155.31,-103.66 155.31,-103.66"/>
<polygon fill="black" stroke="black" points="151.81,-103.66 155.31,-113.66 158.81,-103.66 151.81,-103.66"/>
</g>
</g>
</svg>
