<?xml version="1.0" encoding="UTF-8" standalone="no"?>
<!DOCTYPE svg PUBLIC "-//W3C//DTD SVG 1.1//EN"
 "http://www.w3.org/Graphics/SVG/1.1/DTD/svg11.dtd">
<!-- Generated by graphviz version 5.0.0 (20220707.1540)
 -->
<!-- Title: dependencies Pages: 1 -->
<svg width="740pt" height="174pt"
 viewBox="0.00 0.00 740.00 173.80" xmlns="http://www.w3.org/2000/svg" xmlns:xlink="http://www.w3.org/1999/xlink">
<g id="graph0" class="graph" transform="scale(1 1) rotate(0) translate(4 169.8)">
<title>dependencies</title>
<polygon fill="white" stroke="transparent" points="-4,4 -4,-169.8 736,-169.8 736,4 -4,4"/>
<text text-anchor="middle" x="366" y="-8.2" font-family="sans-serif" font-size="14.00">dependencies</text>
<g id="clust1" class="cluster">
<title>cluster_AppModule</title>
<polygon fill="none" stroke="black" stroke-dasharray="1,5" points="8,-32.8 8,-157.8 724,-157.8 724,-32.8 8,-32.8"/>
</g>
<g id="clust3" class="cluster">
<title>cluster_AppModule_imports</title>
<polygon fill="none" stroke="black" points="154,-40.8 154,-92.8 716,-92.8 716,-40.8 154,-40.8"/>
</g>
<g id="clust6" class="cluster">
<title>cluster_AppModule_providers</title>
<polygon fill="none" stroke="black" points="16,-40.8 16,-92.8 146,-92.8 146,-40.8 16,-40.8"/>
</g>
<!-- AuthModule -->
<g id="node1" class="node">
<title>AuthModule</title>
<polygon fill="#8dd3c7" stroke="black" points="707.55,-84.8 704.55,-88.8 683.55,-88.8 680.55,-84.8 620.45,-84.8 620.45,-48.8 707.55,-48.8 707.55,-84.8"/>
<text text-anchor="middle" x="664" y="-62.6" font-family="Times,serif" font-size="14.00">AuthModule</text>
</g>
<!-- AppModule -->
<g id="node6" class="node">
<title>AppModule</title>
<polygon fill="#8dd3c7" stroke="black" points="415.66,-149.8 412.66,-153.8 391.66,-153.8 388.66,-149.8 332.34,-149.8 332.34,-113.8 415.66,-113.8 415.66,-149.8"/>
<text text-anchor="middle" x="374" y="-127.6" font-family="Times,serif" font-size="14.00">AppModule</text>
</g>
<!-- AuthModule&#45;&gt;AppModule -->
<g id="edge1" class="edge">
<title>AuthModule&#45;&gt;AppModule</title>
<path fill="none" stroke="black" d="M664,-85.08C664,-106.12 664,-137.8 664,-137.8 664,-137.8 425.86,-137.8 425.86,-137.8"/>
<polygon fill="black" stroke="black" points="425.86,-134.3 415.86,-137.8 425.86,-141.3 425.86,-134.3"/>
</g>
<!-- HelpersModule -->
<g id="node2" class="node">
<title>HelpersModule</title>
<polygon fill="#8dd3c7" stroke="black" points="602.59,-84.8 599.59,-88.8 578.59,-88.8 575.59,-84.8 499.41,-84.8 499.41,-48.8 602.59,-48.8 602.59,-84.8"/>
<text text-anchor="middle" x="551" y="-62.6" font-family="Times,serif" font-size="14.00">HelpersModule</text>
</g>
<!-- HelpersModule&#45;&gt;AppModule -->
<g id="edge2" class="edge">
<title>HelpersModule&#45;&gt;AppModule</title>
<path fill="none" stroke="black" d="M551,-84.82C551,-102.17 551,-125.8 551,-125.8 551,-125.8 425.95,-125.8 425.95,-125.8"/>
<polygon fill="black" stroke="black" points="425.95,-122.3 415.95,-125.8 425.95,-129.3 425.95,-122.3"/>
</g>
<!-- PrismaModule -->
<g id="node3" class="node">
<title>PrismaModule</title>
<polygon fill="#8dd3c7" stroke="black" points="481.44,-84.8 478.44,-88.8 457.44,-88.8 454.44,-84.8 382.56,-84.8 382.56,-48.8 481.44,-48.8 481.44,-84.8"/>
<text text-anchor="middle" x="432" y="-62.6" font-family="Times,serif" font-size="14.00">PrismaModule</text>
</g>
<!-- PrismaModule&#45;&gt;AppModule -->
<g id="edge3" class="edge">
<title>PrismaModule&#45;&gt;AppModule</title>
<path fill="none" stroke="black" d="M399.31,-84.91C399.31,-84.91 399.31,-103.79 399.31,-103.79"/>
<polygon fill="black" stroke="black" points="395.81,-103.79 399.31,-113.79 402.81,-103.79 395.81,-103.79"/>
</g>
<!-- SchoolModule -->
<g id="node4" class="node">
<title>SchoolModule</title>
<polygon fill="#8dd3c7" stroke="black" points="365.44,-84.8 362.44,-88.8 341.44,-88.8 338.44,-84.8 266.56,-84.8 266.56,-48.8 365.44,-48.8 365.44,-84.8"/>
<text text-anchor="middle" x="316" y="-62.6" font-family="Times,serif" font-size="14.00">SchoolModule</text>
</g>
<!-- SchoolModule&#45;&gt;AppModule -->
<g id="edge4" class="edge">
<title>SchoolModule&#45;&gt;AppModule</title>
<path fill="none" stroke="black" d="M348.69,-84.91C348.69,-84.91 348.69,-103.79 348.69,-103.79"/>
<polygon fill="black" stroke="black" points="345.19,-103.79 348.69,-113.79 352.19,-103.79 345.19,-103.79"/>
</g>
<!-- TaskModule -->
<g id="node5" class="node">
<title>TaskModule</title>
<polygon fill="#8dd3c7" stroke="black" points="248.27,-84.8 245.27,-88.8 224.27,-88.8 221.27,-84.8 161.73,-84.8 161.73,-48.8 248.27,-48.8 248.27,-84.8"/>
<text text-anchor="middle" x="205" y="-62.6" font-family="Times,serif" font-size="14.00">TaskModule</text>
</g>
<!-- TaskModule&#45;&gt;AppModule -->
<g id="edge5" class="edge">
<title>TaskModule&#45;&gt;AppModule</title>
<path fill="none" stroke="black" d="M205,-84.82C205,-102.17 205,-125.8 205,-125.8 205,-125.8 322.22,-125.8 322.22,-125.8"/>
<polygon fill="black" stroke="black" points="322.22,-129.3 332.22,-125.8 322.22,-122.3 322.22,-129.3"/>
</g>
<!-- AppService -->
<g id="node7" class="node">
<title>AppService</title>
<ellipse fill="#fdb462" stroke="black" cx="81" cy="-66.8" rx="56.75" ry="18"/>
<text text-anchor="middle" x="81" y="-62.6" font-family="Times,serif" font-size="14.00">AppService</text>
</g>
<!-- AppService&#45;&gt;AppModule -->
<g id="edge6" class="edge">
<title>AppService&#45;&gt;AppModule</title>
<path fill="none" stroke="black" d="M81,-85.08C81,-106.12 81,-137.8 81,-137.8 81,-137.8 322.33,-137.8 322.33,-137.8"/>
<polygon fill="black" stroke="black" points="322.33,-141.3 332.33,-137.8 322.33,-134.3 322.33,-141.3"/>
</g>
</g>
</svg>
